<?xml version="1.0" encoding="utf-8"?>
<!-- Generator: Adobe Illustrator 21.0.2, SVG Export Plug-In . SVG Version: 6.00 Build 0)  -->
<svg version="1.1" id="Layer_1" xmlns="http://www.w3.org/2000/svg" xmlns:xlink="http://www.w3.org/1999/xlink" x="0px" y="0px"
	 viewBox="0 0 160 240" style="enable-background:new 0 0 160 240;" xml:space="preserve">
<style type="text/css">
	.st0{opacity:0.2;enable-background:new    ;}
	.st1{fill:#FFFFFF;}
	.st2{fill:#262626;}
	.st3{fill:#CC291F;}
	.st4{fill:#FBD7C7;}
	.st5{fill:#FFCC00;}
	.st6{opacity:0.2;fill:#262626;enable-background:new    ;}
	.st7{fill:#825012;}
</style>
<path class="st0" d="M82.8,237.8c5.5-0.2,6.9-2.6,8.2-7.3c1.4-4.7-0.4-5.7,2.9-8.1c3.3-2.4,5.9-4.8,5-8.4c-1.7-6.9-9-15.1-15.9-15.1
	s-19.8,10.2-20.2,11.2c-0.4,1-3.4,2.3-0.4,6.4C67.2,223,70.8,238.1,82.8,237.8z"/>
<path class="st1" d="M67.8,204.8c0,0-2.4,2.3-4.3,3.7s-2,4.1-1.9,5c0.1,0.9,2.1,3.3,5.5,2.7c3.4-0.6,6-4.3,8.3-6.4
	c2.3-2.2,2.3-2,4-2.3s0-4.2-2.3-4.3c-2.3-0.1-6.8-2.3-6.8-2.3S68.8,203.7,67.8,204.8z"/>
<path class="st1" d="M67.8,204.8c0,0-2.4,2.3-4.3,3.7s-2,4.1-1.9,5c0.1,0.9,2.1,3.3,5.5,2.7c3.4-0.6,6-4.3,8.3-6.4
	c2.3-2.2,2.3-2,4-2.3s0-4.2-2.3-4.3c-2.3-0.1-6.8-2.3-6.8-2.3S68.8,203.7,67.8,204.8z"/>
<path class="st2" d="M75.4,209.9c2.3-2.2,2.3-2,4-2.3c0.2,0,0.4-0.1,0.5-0.3l-6.6-1.3c0,0,0.3,2.6-1.8,4.9c-2,2.3-3.2,3.6-5.7,3.6
	c-1.8,0-3.1-0.4-4.1-1.6c0,0.3,0,0.5,0,0.7c0.1,1,2.1,3.3,5.5,2.7S73.1,212.1,75.4,209.9z"/>
<path class="st3" d="M65.4,119.9c0,0-3.4,9.4-3.1,20.4c0.3,11.5,1.6,18.7,2.4,21.7c1.1,4.5,3.4,5.9,3.9,15.7s0.6,19.8-0.2,22.7
	c-0.8,2.9-2.7,4-2.4,4.7c0.3,0.7,3.8-0.4,5.5,1.2c1.7,1.6,4.5,2.7,5.9,2.7c1.4,0.1,2,0,2,0l-3.7-78.2L65.4,119.9z"/>
<path class="st0" d="M65.4,119.9c0,0-3.4,9.4-3.1,20.4c0.3,11.5,1.6,18.7,2.4,21.7c1.1,4.5,3.4,5.9,3.9,15.7s0.6,19.8-0.2,22.7
	c-0.8,2.9-2.7,4-2.4,4.7c0.3,0.7,3.8-0.4,5.5,1.2c1.7,1.6,4.5,2.7,5.9,2.7c1.4,0.1,2,0,2,0l-3.7-78.2L65.4,119.9z"/>
<path class="st1" d="M81.7,225.9c0,0-1.7,4.5-1.7,5.4s-0.2,3.9,0.4,4.6c0.5,0.6,3.2,1.5,5.3,1.2c2.2-0.3,4.3-2.4,4.5-3.2
	c0.2-0.9-0.1-6.3-0.2-7.1c-0.1-0.8-0.5-2.6-0.5-2.6L81.7,225.9z"/>
<path class="st2" d="M89.6,224.1l-1.4,0.3c0.4,1.9,0.9,6.3,0.3,8.1c-0.8,2.1-3,2.7-4.9,2.7c-1.1,0-3-0.6-3.5-2
	c0,1.1,0.1,2.3,0.4,2.7c0.5,0.6,3.2,1.5,5.3,1.2c2.2-0.3,4.3-2.4,4.5-3.2c0.2-0.9-0.1-6.3-0.2-7.1C90,226,89.6,224.1,89.6,224.1z"/>
<path class="st3" d="M73.8,131.7c0,0-3,7.1-3.5,17.3s0.7,17,0.9,19.3c0.1,2.3,0.5,9.4,1.8,12.1c1.3,2.7,3.7,7.9,4.6,14.4
	s1.3,18.4,1.4,21.4c0.1,4-0.5,7.3,0.2,9.2c0.7,1.9,3-0.4,5.5,0.3c2.5,0.6,6.4,1.4,7.1,1s-0.5-7.5-0.4-11.6
	c0.1-4.1-0.2-19.8-1.1-26.4c-0.8-6.6-5.6-12.8-4.8-19.5s5.4-20.8,6.5-25c1.1-4.1,1.4-10.2,0.8-15.7
	C92.3,122.9,73.8,131.7,73.8,131.7z"/>
<path class="st4" d="M65.4,114.8c0,0-4.3,3.1-5.9,5.1s-2.4,2.9-2.4,4.7c0,1.8,0.8,2.9,1.6,2.7s0-2.7,0-2.7l0.8-1.6
	c0,0-0.8,1.4-0.4,2c0.4,0.5,2.2,2.4,2.7,2c0.6-0.4,0.4-1.2,0.4-1.2s-1.5-1-1.2-1.6s0.8-0.8,0.8-0.8s-0.3,1.8,0,2.4
	c0.3,0.5,1.6,0.4,1.6,0.4l2.4-5.5L65.4,114.8z"/>
<path class="st5" d="M84.8,71.7c-4.6-0.9-13.3-1.6-16.5,2.4c-3.2,4-2.4,5.1-2.4,7.1s-1.5,5.3-2.4,7.5s-2.3,5.9-0.8,8.2
	c1.5,2.4,4.3,3.5,4.3,3.5s-0.8,9.3-1.7,12.9c-0.9,3.5-2,9.8-2.4,11.8c-0.4,2,1.6,7.9,5.5,9.4c3.9,1.6,12.8,2.3,18.1-1.6
	s6.3-6.3,6.3-6.3s-1.9-7.7-1.6-10.6s5.2-17.6,5.2-17.6l3.6-11.8l1.2-0.8c0,0,0.3-2.6-1.2-5.1c-1.5-2.6-4-5.2-7.5-6.3
	S88.8,72.5,84.8,71.7z"/>
<path class="st4" d="M74.2,73.6c0,0-6.9,5.5-2.4,10.2s13.3-4.2,14.9-7.9C88.4,72.4,79.6,68.3,74.2,73.6z"/>
<path class="st6" d="M62.3,93.3c0,0-0.1,4.3,11,6.5c16.5,3.3,19.8-2.9,19.8-2.9s-3.1,8.6-19.2,5.5C59.9,99.7,62.3,93.3,62.3,93.3z"
	/>
<path class="st7" d="M82.9,45.5c-8.1-0.5-12,3-13.5,8.6c-1.5,5.4,4,15.3-1.8,17.9c0.1,2.2,5.1,4.5,7.3,2.1c2.2-2.3,2.9-2.4,2.9-2.4
	L82.9,45.5z"/>
<path class="st4" d="M72.3,55.6c-1.5,3.1-1.9,15.6,0.6,17.6c2.5,2,7.6-1.3,12.5-3.5c4.9-2.2,5.5-19-1.9-19.2
	C76.1,50.3,73.9,52.3,72.3,55.6z"/>
<path class="st7" d="M81.4,45.7c-3.3,0.8-7.1,5.2-6.4,10c1,6.2,13.2,18.3,4.6,22.2c1.4,4.6,9.5,4.3,14,2c4.3-2.3,4.7-4.5,4.6-5.3
	s-3.8-4.9-3.8-10.9C94.3,57.6,94,42.6,81.4,45.7z"/>
<path class="st4" d="M90.6,88.9c0,0,2.8,0,4.8-0.3s4.7-2,4.7-2s0.2,4.6,0.8,7.3c0.6,2.7,1.6,10.4,2,11.5c0.4,1.1,1.9,2,0,5.9
	c-1.9,3.9-9.7,15.9-11.1,19.1c-1.4,3.2-1.3,6.2-2,7.1s-2.5,1.7-2.7,1.6c-0.3-0.1-0.7-0.1-0.7-0.1s-0.4,0.4-1.1,0.4
	c-0.7,0-0.9-0.4-0.9-0.4s-0.5,0.8-1.6,0.7s-1-0.8-1-0.8s-1.6,0.8-2.4,0.6s-1.2-1-0.7-1.3s1.6-0.2,2.4-0.9s2.1-2.8,2.1-2.8
	s-0.3-0.2-0.2-1.4c0-1.2-0.1-3.1,1-3.7c1.2-0.6,2.6-0.6,3.4-1.6c2.5-3,3.2-8.2,5.4-12.7c2.1-4.5,3.6-6.2,3.6-6.6s-2.8-6.7-3.8-10.2
	C91.5,94.5,90.6,88.9,90.6,88.9z"/>
</svg>
