<?xml version="1.0" encoding="utf-8"?>
<!-- Generator: Adobe Illustrator 21.0.2, SVG Export Plug-In . SVG Version: 6.00 Build 0)  -->
<svg version="1.1" id="Layer_1" xmlns="http://www.w3.org/2000/svg" xmlns:xlink="http://www.w3.org/1999/xlink" x="0px" y="0px"
	 viewBox="0 0 160 240" style="enable-background:new 0 0 160 240;" xml:space="preserve">
<style type="text/css">
	.st0{fill:#FBD7C7;}
	.st1{opacity:0.2;enable-background:new    ;}
	.st2{fill:#262626;}
	.st3{fill:#FFFFFF;}
	.st4{fill:#06547A;}
	.st5{fill:#E5E5E5;}
	.st6{fill:#825012;}
</style>
<g>
	<path class="st0" d="M77.7,67.9l12.7-7.7l-3.1-8.7L81,44.1l-9.6-1.3c-0.1,4-1,10.7-6.9,13.6C63.2,56.9,77.7,67.9,77.7,67.9z"/>
	<path class="st1" d="M63.7,231.7c-7-2.4-25-17.2-4.2-23c18.4-5.2,23.6-17.9,45.3-5.8c10.7,6,7.3,13.9-10.6,18.2
		C82.2,224,80,237.3,63.7,231.7z"/>
	<path class="st2" d="M75.1,202.3c-0.3,2.3,1.2,4.4,4.9,5.7c4.1,1.5,9.1,4.3,11.5,5.7c4,2.3,8.7,2.3,11.9,1c2.4-1,2.7-2.5,2.3-5
		c-0.4-2.6-3-2.7-7.2-4.3c-3.8-1.5-10.1-7.2-10.1-7.2L75.1,202.3z"/>
	<path class="st3" d="M76.4,203.4c3,1,6.4,2,9.3,3.7c3,1.8,10.3,6.3,14.7,5.4c3.2-0.7,4.6-1.9,4.4-3.4s-4.1-2.4-7.1-3.7
		c-2-0.8-9-6.8-9-6.8L76.4,203.4z"/>
	<path class="st2" d="M55.9,217.6c2.5,4.3,3.8,10,8.3,12.5s8.6,1.9,12.3,0.3c2.2-1,1.4-3.9,0.9-5s-2.4-2.3-4.8-4.8
		c-3-3.1-4.5-7.7-4.5-7.7L55.9,217.6z"/>
	<path class="st3" d="M58.2,217.1c0,0,2.6,7.9,6.4,9.9c4,2.1,6.6,1.6,10,0.6s3.2-1.8,0.7-3.9c-2.6-2.2-5.7-5.9-5.8-7.3
		S58.2,217.1,58.2,217.1z"/>
	<path class="st4" d="M95.3,112c1.8,3.9,4.3,11.7,4.1,24.2c-0.2,12.5-0.1,17.1,0,20.3c0.1,3.3-0.8,5.5-2.7,11.2
		c-1.6,5.1-6.6,23.6-6.3,27.4c0.1,0.9,2,1.6,2.4,3.6c0.4,2,0.5,2.7-1.9,4c-2.4,1.3-9.4,5.2-14.4,3.2c-2.1-0.8-3-1-2.8-5.4
		c0.2-4.4,0.6-12.9,1.7-21.5s4.6-15.5,4.1-21.2s-9-21.5-8.2-29.6c0.8-8.1,1-10.3,1-10.3L95.3,112z"/>
	<path class="st1" d="M95.3,112c1.8,3.9,4.3,11.7,4.1,24.2c-0.2,12.5-0.1,17.1,0,20.3c0.1,3.3-0.8,5.5-2.7,11.2
		c-1.6,5.1-6.6,23.6-6.3,27.4c0.1,0.9,2,1.6,2.4,3.6c0.4,2,0.5,2.7-1.9,4c-2.4,1.3-9.4,5.2-14.4,3.2c-2.1-0.8-3-1-2.8-5.4
		c0.2-4.4,0.6-12.9,1.7-21.5s4.6-15.5,4.1-21.2s-9-21.5-8.2-29.6c0.8-8.1,1-10.3,1-10.3L95.3,112z"/>
	<path class="st4" d="M85.4,121.3c0,0,2,10.2,0.8,13.5c-1.2,3.3-3.8,3.5-4,6.7c-0.2,3.1-0.6,12.1-1.8,17.3s-3.5,16.2-5,20.2
		s-2.7,14.6-3.9,20.3c-0.9,4.7-2.1,8.5-1.6,12s1.1,5.2,0.7,5.5c-0.4,0.3-4.4,0.4-7.3,1.6s-6.3,1-8.1-0.5c-1.8-1.5-2.7-4.5-1.7-6.9
		s1.3-3.5,0.2-7.4c-1.1-3.9,0.7-5.2,1.3-7.5c0.6-2.3-0.4-5.5,0.7-10.1c0.7-3.4,4-10,3.9-15.6s-3.3-27.2-2.4-36.3
		c1-9.1,3.3-14.2,3.3-14.2L85.4,121.3z"/>
	<path class="st0" d="M98.3,61.1c0,0-3.9,23.1-3.6,29.4s0.8,20.6,0.8,20.6l-9.7-5.6c0,0-1.5-12.7-1-16.1s5.5-16.3,5.5-16.3
		L98.3,61.1z"/>
	<path class="st5" d="M84.7,51.1c0,0,7.9,0.4,11.5,4.3c3.6,3.9,2,6.5,1.2,8.4c-0.8,1.9-0.3,3-0.3,6.6s-1.4,9.9-3.1,12.5
		s-0.7,5-0.6,7.9c0.1,2.9,1,5.9,1.2,10.5s1.7,12.6,2,13.7c0.3,1.2-2.7,4.4-11.1,7.4c-6.7,2.3-23.4,1.4-25.7-2.4s2.3-6.9,2-11.8
		s-5.4-21-5.4-21S51.2,75.3,51,72.9c-0.3-2.4-0.3-8.9,2.7-11.3s12.1-6.4,12.1-6.4s6.6,11,14.8,8.9C89.8,61.9,84.7,51.1,84.7,51.1z"
		/>
	<path class="st0" d="M65.8,129.2c0.2-0.9,0.9-1.2,0.9-2.7c-0.1-1.4,0.1-2.7-0.6-3.5s-1.6-0.7-2.6-2.1s-3-7.2-4.5-13.7
		c-1.4-6.5-3.5-11.3-3.7-11.7c-0.3-0.5,2-3.8,4.4-8.7c2.1-4.4,3.5-8.3,5.3-11c-2.4,0.2-7.3,0.4-9.5-0.2c-1.7-0.5-3.4-1.5-4.5-2.2
		c-1.1,6.9-3.8,15-4.3,16.6c-0.5,1.8-1.7,4.9,0.3,10.5s9,19,8.9,21.3c-0.1,2.3-0.6,7.8-0.5,9.6c0.1,1.8,1.8,1.7,2.6,2.5
		c0.8,0.8,2.6,0.7,2.9,1.7c0.3,1,1.8,1,2.5,1.6c0.7,0.6,2.2,1.2,2.9,0.7c0.7-0.5,0.3-1.8-0.2-2.6C65.7,134.5,65.6,130,65.8,129.2z"
		/>
	<path class="st0" d="M77.4,24.8c-5.4,0.3-8.4,3.5-8.6,7.1c-0.2,3.6,0,6.2,0,6.2s-1-0.4-1.3,0.8c-0.3,1.3,0.7,4.6,2.5,6.2
		c1.8,1.6,2.7,4.7,4.8,6.9c2.1,2.3,6.7,5.4,9.9,5s5.7-12.5,5.5-16.4S90.2,24.1,77.4,24.8z"/>
	<path class="st6" d="M77.4,24.5c-5.4,0.3-8.4,3.6-8.8,7.4c-0.3,2.8-0.1,5.1,0.1,6.1c0.6,0.3,1.6,0.6,2.3,1.7c1,1.7,1,2.4,1,2.4
		l1.4-0.5c0,0,1.5-7.5,3.7-8.3c2.2-0.8,4.1,1.9,7,1.3c2.9-0.6,2.5-2.9,3.7-3c0.2,0,0.6,0.1,1,0.3C87.4,27.9,84.3,24.2,77.4,24.5z"/>
</g>
</svg>
