<?xml version="1.0" encoding="utf-8"?>
<!-- Generator: Adobe Illustrator 21.0.2, SVG Export Plug-In . SVG Version: 6.00 Build 0)  -->
<svg version="1.1" id="Layer_1" xmlns="http://www.w3.org/2000/svg" xmlns:xlink="http://www.w3.org/1999/xlink" x="0px" y="0px"
	 viewBox="0 0 160 240" style="enable-background:new 0 0 160 240;" xml:space="preserve">
<style type="text/css">
	.st0{fill:#262626;}
	.st1{fill:#FFFFFF;}
	.st2{opacity:0.2;enable-background:new    ;}
	.st3{fill:#06547A;}
	.st4{fill:#FBD7C7;}
	.st5{fill:#E5E5E5;}
	.st6{fill:#825012;}
</style>
<path class="st0" d="M51.8,132.1c-1.6,2-8.4,11.9-9.8,13.9c-2.2,3.1-2.8,6.3-0.5,9c2.2,2.7,5.4,2.9,8.1,1.3c2.7-1.6,7.5-9.7,7.5-9.7
	L51.8,132.1z"/>
<path class="st1" d="M51.3,136.6c-2.1,2.6-6.9,10.1-8.5,12.6c-1.3,2-1.7,5.2,1.7,6.9c3.4,1.7,6.7-1,8.2-3.3c1.6-2.2,6.5-9.8,6.5-9.8
	L51.3,136.6z"/>
<path class="st2" d="M44.9,196.3c-12.6,6.9-18.6,17-7.9,25.4s28.3,10.2,42.4,2.4s5.8-16.2-3.7-22.3S56.4,190,44.9,196.3z"/>
<path class="st3" d="M115.8,124.3c0.5,5.2,2,11.3-0.5,20.7s-4.8,21-7.7,23.7c-2.6,2.5-7.6,3.3-13,0.9c-5.4-2.4-13.7-6.7-17.7-7.1
	c-4-0.4-18.6-4.8-18.6-4.8s3.8-16.2,6.9-16.1c3.1,0.1,28,7.7,28,7.7l4.1-22L115.8,124.3z"/>
<path class="st2" d="M115.8,124.3c0.5,5.2,2,11.3-0.5,20.7s-4.8,21-7.7,23.7c-2.6,2.5-7.6,3.3-13,0.9c-5.4-2.4-13.7-6.7-17.7-7.1
	c-4-0.4-18.6-4.8-18.6-4.8s3.8-16.2,6.9-16.1c3.1,0.1,28,7.7,28,7.7l4.1-22L115.8,124.3z"/>
<path class="st3" d="M105.4,131c0,0-3.1,15.1-5.1,17.4c-2,2.3-7.1,2.6-7.6,4.3s-12.9,22.7-16.2,25.1c-4.2,3.1-12.4,3-14.8-1.4
	c-2.2-4.2-2.9-14.3-5.6-19.8c-2.7-5.5-5.6-7.6-7.2-9.6c-2.6-3.3-1-17.5,6.2-18.7s8.2,5.2,9.9,8.2s4.7,8.9,4.7,8.9s5.5-13.1,7.5-17.9
	s4.7-8.9,4.7-8.9L105.4,131z"/>
<path class="st4" d="M114.7,25.6c-0.8,0-6.4,0.8-8.5-0.7c-1.2-0.8-1.5-2.9-1.5-3.9c-0.1-1,0.5-4.3,2.4-4.9c1.8-0.6,6-0.2,8,1.2
	c1.6,1.1,2,2,3.3,3.4c1.3,1.3,2.5,2.4,3.3,4.2c1.3,2.6,3.2,10.4,5.7,14.1c2.6,3.9,0.6,6.7-1.6,9.4c-2.2,2.7-11.2,11.1-11.6,12.2
	c-0.4,1.1-16.2-1.6-14.5-4.8c1.6-3.2,6-4.6,8.1-5.2c2.1-0.6,2.9-1,4-2.5c0.7-0.9,1.8-2.5,3.7-3.8c2.1-1.3,2.9-2,2.9-2
	s-2.7-4.5-3-8.8C115,29.2,114.7,25.6,114.7,25.6z"/>
<path class="st5" d="M95.7,58.7c0,0,2.6-3.3,5.3-5c2.7-1.7,5-2.5,5-2.5s2,1.5,4.2,3.9c2.2,2.4,4.3,5.4,4.3,5.4s3.4,6.5,2.9,15.7
	s-3.6,23-2.9,28.3c0.7,5.3,1.8,18.4,1.8,20.6c0.1,2.2-5.8,8.3-15.3,8.1c-9.4-0.2-22.1-4.4-22.3-9.2s2.5-4.8,2.7-9.4
	c0.3-4.6-1-20.4-7.9-29.3c-5-6.5-4.3-7.2-8.1-9.4c-3.7-2.2,0.1-13.4,3.8-13.7s11.6-0.5,15.3,0C88.1,62.7,95.7,58.7,95.7,58.7z"/>
<path class="st4" d="M56.9,60.7c0,0,1.2-3.2,1.9-9.2c0.7-5.9,0.5-8.2,2.1-9.7s4.3-1.4,4.8-2.6c0.5-1.2,2.2-1.7,2.9-3.1
	c0.8-1.5,0.7-3.4-0.7-4.3c-1.4-0.9-4.5-2.3-5.8-1.6c-1.3,0.6-1.8,1.3-2.6,2.1c-1,1.1-1.8,3-3.4,5.7c-1.6,2.7-7.8,16.7-9.4,20.2
	s-2.8,7.3,0,10.4s7.3,2,11,3.3c3.7,1.4,7.2,4.2,8.8,4.2c1.6,0,6.5-1.7,6.9-8.1s-4.6-5.6-5.6-5.5s-1.4,0.2-3.8-0.9
	S56.9,60.7,56.9,60.7z"/>
<path class="st4" d="M84.8,59.4c-0.5-0.8-3.8-3.9-5.3-4.3c-1.5-0.3-3-0.5-4.4-1.9c-1.7-1.7-0.7-2.9-0.7-2.9s-3.3-3.5-2.2-9.2
	c1.1-5.9,10.2-11.6,17.4-6.3c2.8,2.1,9.5,12.7,9,15.1c-0.5,2.3-1.6,2.8-0.9,4.1s1.4,5,2,5.4c0.5,0.3,7,6.2-1,9.8
	C90.1,73,86.5,66.5,84.9,65c-2.1-2-3.1-2.7-3.1-2.7S86.4,62.1,84.8,59.4z"/>
<path class="st6" d="M72.2,41.1c0.8-4.2,5.7-8.4,11.1-8.4c-0.4,0.6-1.1,1.4-1.8,2.1c-2.7,2.3-4.2,1.1-5.2,4.2
	c-1,3.1,3.5,10.2,3.5,10.2L78.6,50c0,0-2.9-1.5-4.2,0.3l0,0C74,49.8,71.2,46.4,72.2,41.1z"/>
</svg>
